<?xml version="1.0" encoding="UTF-8" standalone="no"?>
<!-- Created with Inkscape (http://www.inkscape.org/) -->

<svg
   xmlns:dc="http://purl.org/dc/elements/1.1/"
   xmlns:cc="http://creativecommons.org/ns#"
   xmlns:rdf="http://www.w3.org/1999/02/22-rdf-syntax-ns#"
   xmlns:svg="http://www.w3.org/2000/svg"
   xmlns="http://www.w3.org/2000/svg"
   xmlns:sodipodi="http://sodipodi.sourceforge.net/DTD/sodipodi-0.dtd"
   xmlns:inkscape="http://www.inkscape.org/namespaces/inkscape"
   id="svg2"
   version="1.1"
   inkscape:version="0.91 r13725"
   xml:space="preserve"
   width="130.29718"
   height="100"
   viewBox="0 0 130.29718 99.999998"
   sodipodi:docname="jfrog_bintray.svg"><metadata
     id="metadata8"><rdf:RDF><cc:Work
         rdf:about=""><dc:format>image/svg+xml</dc:format><dc:type
           rdf:resource="http://purl.org/dc/dcmitype/StillImage" /><dc:title></dc:title></cc:Work></rdf:RDF></metadata><defs
     id="defs6"><clipPath
       clipPathUnits="userSpaceOnUse"
       id="clipPath16"><path
         d="m 0,135.24 173.19,0 L 173.19,0 0,0 0,135.24 Z"
         id="path18"
         inkscape:connector-curvature="0" /></clipPath></defs><sodipodi:namedview
     pagecolor="#ffffff"
     bordercolor="#666666"
     borderopacity="1"
     objecttolerance="10"
     gridtolerance="10"
     guidetolerance="10"
     inkscape:pageopacity="0"
     inkscape:pageshadow="2"
     inkscape:window-width="1440"
     inkscape:window-height="798"
     id="namedview4"
     showgrid="false"
     inkscape:zoom="1.3960367"
     inkscape:cx="6.7239214"
     inkscape:cy="192.8878"
     inkscape:window-x="0"
     inkscape:window-y="1"
     inkscape:window-maximized="1"
     inkscape:current-layer="g10"
     fit-margin-top="0"
     fit-margin-left="0"
     fit-margin-right="0"
     fit-margin-bottom="0" /><g
     id="g10"
     inkscape:groupmode="layer"
     inkscape:label="Bintray_BLACK"
     transform="matrix(1.25,0,0,-1.25,-6.250125,106.24737)"><g
       id="g12"
       transform="matrix(0.63875162,0,0,0.63875162,1.806278,1.8054832)"><g
         id="g14"
         clip-path="url(#clipPath16)"><g
           id="g20"
           transform="translate(8.1381,35.3629)"><path
             d="m 0,0 4.692,0 0,-18.504 c 0,-2.973 -0.099,-3.569 -0.331,-4.493 -0.66,-2.808 -3.27,-4.593 -5.352,-5.387 l -2.147,2.381 c 1.188,0.726 2.247,1.849 2.676,2.775 0.363,0.825 0.462,1.751 0.462,4.229 L 0,0 Z"
             style="fill:#231f20;fill-opacity:1;fill-rule:nonzero;stroke:none"
             id="path22"
             inkscape:connector-curvature="0" /></g><g
           id="g24"
           transform="translate(15.2445,35.2968)"><path
             d="m 0,0 12.457,0 -0.528,-3.734 -7.303,0 0,-5.253 5.848,0 0,-3.767 -5.848,0 0,-10.144 -4.626,0 L 0,0 Z"
             style="fill:#231f20;fill-opacity:1;fill-rule:nonzero;stroke:none"
             id="path26"
             inkscape:connector-curvature="0" /></g><g
           id="g28"
           transform="translate(26.6462,28.6557)"><path
             d="m 0,0 3.965,1.057 c 0.396,-0.694 0.628,-1.455 0.694,-2.412 0.627,0.858 1.685,1.751 2.51,2.147 0.364,0.166 0.959,0.265 1.455,0.265 0.66,0 0.957,-0.066 1.652,-0.364 L 9.053,-3.206 c -0.429,0.231 -0.792,0.33 -1.289,0.33 -0.991,0 -1.882,-0.462 -2.709,-1.419 l 0,-11.962 -4.428,0 0,11.3 C 0.627,-2.677 0.363,-0.959 0,0"
             style="fill:#231f20;fill-opacity:1;fill-rule:nonzero;stroke:none"
             id="path30"
             inkscape:connector-curvature="0" /></g><g
           id="g32"
           transform="translate(43.8967,26.376)"><path
             d="m 0,0 c -1.057,0 -1.917,-0.662 -2.28,-1.718 -0.297,-0.893 -0.462,-2.082 -0.462,-3.767 0,-1.95 0.198,-3.404 0.561,-4.263 0.397,-0.924 1.389,-1.388 2.247,-1.388 1.917,0 2.742,1.718 2.742,5.717 0,2.279 -0.297,3.767 -0.891,4.526 C 1.487,-0.332 0.792,0 0,0 m -0.066,3.27 c 2.412,0 4.295,-0.825 5.75,-2.544 1.353,-1.586 1.949,-3.436 1.949,-6.178 0,-2.908 -0.662,-4.89 -2.114,-6.543 -1.29,-1.454 -2.975,-2.345 -5.585,-2.345 -4.593,0 -7.6,3.435 -7.6,8.755 0,5.319 3.04,8.855 7.6,8.855"
             style="fill:#231f20;fill-opacity:1;fill-rule:nonzero;stroke:none"
             id="path34"
             inkscape:connector-curvature="0" /></g><g
           id="g36"
           transform="translate(59.5938,26.376)"><path
             d="m 0,0 c -1.685,0 -2.643,-0.926 -2.643,-2.512 0,-1.717 1.057,-2.412 2.61,-2.412 1.751,0 2.709,0.86 2.709,2.412 C 2.676,-0.926 1.685,0 0,0 M 8.657,3.898 10.507,1.09 C 9.55,0.198 8.624,-0.165 7.402,-0.165 c -0.431,0 -0.596,0.033 -1.157,0.099 0.66,-0.794 0.99,-1.652 0.99,-2.777 0,-2.907 -2.642,-5.021 -6.244,-5.021 -0.199,0 -0.331,0 -0.661,0.033 -1.122,-0.529 -1.751,-0.926 -1.751,-1.389 0,-0.231 0.264,-0.396 0.728,-0.396 l 2.378,-0.033 c 2.577,-0.033 3.933,-0.429 5.121,-1.52 0.992,-0.925 1.455,-2.082 1.455,-3.601 0,-1.421 -0.43,-2.512 -1.356,-3.502 -1.486,-1.587 -4.031,-2.181 -6.674,-2.181 -2.412,0 -4.89,0.396 -6.41,1.817 -0.924,0.859 -1.388,1.851 -1.388,3.006 0,0.926 0.232,1.389 0.398,1.719 l 4.097,0 c -0.134,-0.363 -0.2,-0.495 -0.2,-1.09 0,-1.355 1.124,-2.081 3.173,-2.081 1.256,0 2.214,0.165 2.808,0.561 0.629,0.396 1.058,1.057 1.058,1.718 0,0.661 -0.33,1.255 -0.794,1.519 -0.462,0.231 -1.089,0.431 -2.313,0.497 -0.231,0 -0.858,0.033 -1.883,0.033 -1.983,0.033 -3.27,0.231 -4.063,0.528 -0.398,0.165 -0.728,0.463 -0.959,0.826 -0.198,0.396 -0.33,0.86 -0.33,1.388 0,0.627 0.165,1.156 0.528,1.553 0.495,0.562 1.587,1.057 2.577,1.288 -2.445,0.629 -3.633,2.181 -3.633,4.692 0,3.47 2.808,5.716 7.136,5.716 0.958,0 1.818,-0.099 3.039,-0.429 1.223,-0.297 1.521,-0.363 2.082,-0.363 1.223,0 2.479,0.528 3.503,1.453"
             style="fill:#231f20;fill-opacity:1;fill-rule:nonzero;stroke:none"
             id="path38"
             inkscape:connector-curvature="0" /></g><g
           id="g40"
           transform="translate(80.8769,22.3778)"><path
             d="m 0,0 0,-6.212 3.008,0 c 0.957,0 1.618,0.165 2.147,0.528 0.694,0.529 1.189,1.587 1.189,2.676 0,1.323 -0.693,2.445 -1.685,2.81 C 4.097,-0.033 3.932,0 2.876,0 L 0,0 Z m -0.066,9.086 0,-5.286 2.743,0 c 1.09,0 1.585,0.066 1.982,0.297 0.628,0.33 1.19,1.453 1.19,2.379 0,0.958 -0.529,1.917 -1.323,2.313 C 4.13,8.954 3.635,9.086 2.61,9.086 l -2.676,0 z m -4.56,3.932 7.766,0 c 2.808,0 4.262,-0.429 5.649,-1.652 1.289,-1.123 1.883,-2.445 1.883,-4.098 C 10.672,5.715 10.111,4.394 9.12,3.402 8.459,2.775 8.062,2.544 7.006,2.214 c 3.072,-0.926 4.559,-2.777 4.559,-5.783 0,-3.171 -1.982,-6.08 -6.013,-6.344 C 4.825,-9.946 3.866,-9.979 2.61,-9.979 l -7.236,0 0,22.997 z"
             style="fill:#231f20;fill-opacity:1;fill-rule:nonzero;stroke:none"
             id="path42"
             inkscape:connector-curvature="0" /></g><g
           id="g44"
           transform="translate(94.3302,29.0189)"><path
             d="m 0,0 4.427,0.693 0,-17.313 L 0,-16.62 0,0 Z m 2.28,7.698 c 1.487,0 2.676,-1.222 2.676,-2.742 0,-1.521 -1.222,-2.742 -2.742,-2.742 -1.488,0 -2.709,1.221 -2.709,2.742 0,1.52 1.254,2.742 2.775,2.742"
             style="fill:#231f20;fill-opacity:1;fill-rule:nonzero;stroke:none"
             id="path46"
             inkscape:connector-curvature="0" /></g><g
           id="g48"
           transform="translate(100.9398,28.6227)"><path
             d="m 0,0 3.932,1.123 c 0.396,-0.694 0.627,-1.42 0.627,-2.115 1.024,0.728 1.222,0.86 1.95,1.256 0.892,0.462 2.049,0.727 3.039,0.727 1.884,0 3.536,-0.991 4.064,-2.445 0.232,-0.628 0.331,-1.356 0.331,-2.412 l 0,-12.358 -4.362,0 0,11.003 c 0,1.916 -0.33,2.478 -1.486,2.478 -0.893,0 -2.048,-0.595 -3.073,-1.519 l 0,-11.962 -4.428,0 0,12.259 C 0.594,-2.512 0.396,-1.124 0,0"
             style="fill:#231f20;fill-opacity:1;fill-rule:nonzero;stroke:none"
             id="path50"
             inkscape:connector-curvature="0" /></g><g
           id="g52"
           transform="translate(126.2527,29.3491)"><path
             d="m 0,0 -1.124,-2.94 -2.841,0 0,-8.624 c 0,-2.148 0.396,-2.71 1.916,-2.71 0.397,0 0.793,0.099 1.587,0.33 l 0.561,-2.643 c -1.289,-0.528 -2.445,-0.759 -3.602,-0.759 -2.247,0 -4.064,0.99 -4.559,2.477 -0.265,0.727 -0.298,1.057 -0.298,2.61 l 0,9.319 -1.685,0 0,2.874 1.685,0 c 0,1.652 0,2.775 0.166,4.031 l 4.493,1.123 C -3.866,3.536 -3.965,1.718 -3.965,0 L 0,0 Z"
             style="fill:#231f20;fill-opacity:1;fill-rule:nonzero;stroke:none"
             id="path54"
             inkscape:connector-curvature="0" /></g><g
           id="g56"
           transform="translate(127.3453,28.6557)"><path
             d="m 0,0 3.965,1.057 c 0.396,-0.694 0.627,-1.455 0.694,-2.412 0.627,0.858 1.685,1.751 2.51,2.147 0.364,0.166 0.959,0.265 1.455,0.265 0.66,0 0.957,-0.066 1.652,-0.364 L 9.053,-3.206 c -0.429,0.231 -0.792,0.33 -1.289,0.33 -0.991,0 -1.882,-0.462 -2.709,-1.419 l 0,-11.962 -4.428,0 0,11.3 C 0.627,-2.677 0.363,-0.959 0,0"
             style="fill:#231f20;fill-opacity:1;fill-rule:nonzero;stroke:none"
             id="path58"
             inkscape:connector-curvature="0" /></g><g
           id="g60"
           transform="translate(146.3141,19.7994)"><path
             d="m 0,0 -0.198,0 c -3.074,0 -4.13,-0.561 -4.13,-2.577 0,-1.321 0.825,-2.214 1.949,-2.214 0.826,0 1.651,0.43 2.313,1.158 L 0,0 Z m -8.69,7.501 c 1.09,0.693 1.552,0.925 2.742,1.388 1.653,0.694 3.072,0.991 4.626,0.991 2.841,0 4.79,-1.057 5.452,-2.94 C 4.361,6.245 4.427,5.717 4.427,3.899 l -0.099,-5.682 0,-0.297 c 0,-1.818 0.298,-2.512 1.587,-3.47 L 3.567,-8.259 C 2.544,-7.83 1.619,-7.07 1.189,-6.21 0.561,-6.806 0.495,-6.872 0.165,-7.103 c -0.827,-0.595 -2.016,-0.925 -3.404,-0.925 -3.767,0 -5.814,1.917 -5.814,5.286 0,3.965 2.742,5.816 8.127,5.816 0.332,0 0.53,0 0.992,-0.033 l 0,0.693 c 0,1.884 -0.363,2.511 -1.983,2.511 -1.421,0 -3.073,-0.693 -4.889,-1.915 L -8.69,7.501 Z"
             style="fill:#231f20;fill-opacity:1;fill-rule:nonzero;stroke:none"
             id="path62"
             inkscape:connector-curvature="0" /></g><g
           id="g64"
           transform="translate(151.4379,29.0189)"><path
             d="m 0,0 4.526,0.528 2.942,-9.847 c 0.297,-1.023 0.892,-3.501 0.892,-3.501 0,0 0.33,1.884 0.528,2.709 0.264,1.058 0.33,1.223 0.662,2.346 l 2.544,8.029 4.658,0 -6.146,-17.148 c -1.157,-3.272 -2.015,-4.692 -3.237,-5.585 -1.124,-0.825 -2.578,-1.354 -4.097,-1.552 l -1.521,2.907 c 0.958,0.265 2.082,0.661 2.742,1.123 0.496,0.365 0.893,0.827 1.257,1.388 0.429,0.694 0.561,0.992 0.957,1.983 l -1.122,0 c -0.265,0.792 -0.398,1.124 -0.695,1.983 -0.331,1.023 -0.859,2.708 -0.892,2.775 L 0,0 Z"
             style="fill:#231f20;fill-opacity:1;fill-rule:nonzero;stroke:none"
             id="path66"
             inkscape:connector-curvature="0" /></g><path
           d="m 116.755,53.046 -60.321,0 0,5.379 60.321,0 0,-5.379 z"
           style="fill:#231f20;fill-opacity:1;fill-rule:nonzero;stroke:none"
           id="path68"
           inkscape:connector-curvature="0" /><g
           id="g70"
           transform="translate(99.5261,104.4832)"><path
             d="m 0,0 0,-5.379 7.986,0 -18.159,-18.158 0,38.931 5.623,-5.622 3.803,3.803 -12.184,12.184 -12.182,-12.184 3.803,-3.803 5.759,5.76 0,-39.069 -18.159,18.158 7.849,0 0,5.379 -17.231,0 0,-17.231 5.379,0 0,8.249 24.851,-24.851 24.712,24.713 0,-8.111 5.379,0 L 17.229,0 0,0 Z"
             style="fill:#231f20;fill-opacity:1;fill-rule:nonzero;stroke:none"
             id="path72"
             inkscape:connector-curvature="0" /></g></g></g></g></svg>